<svg width="839" height="834" viewBox="0 0 839 834" fill="none" xmlns="http://www.w3.org/2000/svg">
<path d="M154.405 118.199L120.911 148.028H218.25L200.457 132.852C177.849 117.361 160.335 116.629 154.405 118.199Z" stroke="black" stroke-width="6.61347"/>
<path d="M81.0283 162.247C155.549 31.7419 515.112 -125.97 759.024 162.246L81.0283 162.247Z" fill="#008CE1"/>
<path d="M506.783 79.0467C565.753 83.3355 633.333 143.037 653.659 162.47H752.165C746.134 152.418 655.403 56.263 567.092 56.2629C498.064 56.2628 498.294 68.3249 506.783 79.0467Z" fill="#18A6FC" fill-opacity="0.8"/>
<path d="M699.228 125.516L728.428 128.801L759.024 161.553H622.202L595.532 141.264C590.492 137.43 593.203 129.387 599.536 129.387H628.887C637.893 129.387 646.803 131.226 655.072 134.792L668.959 140.779H684.523V138.66C684.523 130.77 691.387 124.634 699.228 125.516Z" fill="#82D5FF" fill-opacity="0.8"/>
<path d="M335.426 86.7375C329.418 62.7112 277.751 30.4724 256.589 33.5318C235.427 36.5912 118.659 96.6782 85.6331 160.639H575.965C518.302 105.723 387.767 54.1305 335.426 86.7375Z" fill="#1CA7FF" fill-opacity="0.58"/>
<path d="M300.243 105.615C287.2 78.1565 239.61 54.9319 219.875 49.2114C180.044 62.4884 94.4444 134.304 91.9849 160.942L486.027 161.553C428.365 106.636 335.138 98.75 300.243 105.615Z" fill="#46B9F6"/>
<path d="M394.087 138.382C311.61 117.868 298.382 144.744 301.179 159.371C349.813 159.371 435.23 162.223 443.434 159.371C446.393 158.343 407.344 142.07 394.087 138.382Z" fill="#ADE1FA" fill-opacity="0.5"/>
<path d="M132.426 103.825C115.755 116.313 90.2058 143.915 81.8789 162.165H241.228L225.389 153.889L132.426 103.825Z" fill="#AFE2F7"/>
<path d="M625.857 775.097C560.516 812.804 485.913 833.151 410.729 833.151C348.68 833.151 284.137 819.122 225.098 790.21L427.23 401.338L625.857 775.097ZM283.337 398.995L116.365 711.918C46.8418 640.773 0 537.328 0 398.995H283.337ZM838.528 398.995C838.528 519.013 795.39 619.175 728.155 692.939L619.229 486.088L573.367 398.995H838.528Z" fill="url(#paint0_linear_939_57)"/>
<path d="M784.766 227.815C791.724 238.764 806.301 265.59 808.938 285.306H517.498L489.63 227.815H784.766ZM357.008 227.815L328.914 285.306H30.9912C34.424 275.009 44.8935 249.095 59.3086 227.815H357.008Z" fill="#8DCFE9" fill-opacity="0.56"/>
<path d="M617.091 285.808L572.278 227.904H489.997L523.076 285.808H617.091Z" fill="#79CDF8"/>
<path d="M288.149 285.062L267.639 227.735H58.2788C52.0807 234.589 37.7039 265.23 31.5054 285.062H288.149Z" fill="#AEE2FA"/>
<path d="M666.53 285.592C666.53 275.392 664.718 251.935 638.74 227.515H785.21L792.892 240.816L800.575 257.199L805.849 271.92L809.06 285.592H666.53Z" fill="#82D5FF"/>
<path d="M615.871 285.872L676.747 285.723L665.129 257.036L646.464 227.659H571.086L615.871 285.872Z" fill="#0988D7" fill-opacity="0.8"/>
<path d="M286.964 285.154L265.056 227.724H302.233L340.22 260.927L326.96 285.154H286.964Z" fill="#46B9F6"/>
<path d="M356.104 227.861L302.178 227.72L340.036 261.379L356.104 227.861Z" fill="#79CDF8"/>
<defs>
<linearGradient id="paint0_linear_939_57" x1="419.264" y1="398.995" x2="419.264" y2="833.151" gradientUnits="userSpaceOnUse">
<stop stop-color="#C506F2"/>
<stop offset="1" stop-color="#4530CD"/>
</linearGradient>
</defs>
</svg>
